# xmcd CD database file
#
# Track frame offsets:
#	150
#	24117
#	45404
#	70081
#	89514
#
# Disc length: 1534 seconds
#
# Revision: 0
# Processed by: cddbd v1.5.2PL0 Copyright (c) Steve Scherf et al.
# Submitted via: CDex 1.51
#
DISCID=3105fc05
DTITLE=Art Farmer - Cool Jazz Collection Vol.36
DYEAR=2009
DGENRE=Jazz
TTITLE0=Blue Lights
TTITLE1=So Beats My Heart for You
TTITLE2=Who Cares
TTITLE3=Lullaby of the Leaves
TTITLE4=The Very Thought of You
EXTD=YEAR: 2009
EXTT0=
EXTT1=
EXTT2=
EXTT3=
EXTT4=
PLAYORDER=
